<?xml version="1.0" standalone="no"?>
<!DOCTYPE svg PUBLIC "-//W3C//DTD SVG 20010904//EN"
 "http://www.w3.org/TR/2001/REC-SVG-20010904/DTD/svg10.dtd">
<svg version="1.0" xmlns="http://www.w3.org/2000/svg"
 width="500.000000pt" height="500.000000pt" viewBox="0 0 500.000000 500.000000"
 preserveAspectRatio="xMidYMid meet">

<g transform="translate(0.000000,500.000000) scale(0.100000,-0.100000)"
fill="#000000" stroke="none">
<path d="M2557 4706 c-55 -20 -111 -62 -169 -125 l-50 -55 -135 -27 c-159 -33
-237 -67 -314 -137 -70 -64 -86 -102 -98 -234 -6 -57 -21 -137 -33 -178 -38
-129 -27 -419 19 -500 9 -16 12 -18 8 -5 -16 48 -35 208 -35 299 0 70 7 127
24 200 14 55 28 135 31 176 10 113 22 147 68 197 83 91 173 133 382 179 173
38 287 52 353 43 31 -4 103 -13 159 -18 244 -25 433 -95 548 -203 69 -64 105
-127 156 -278 32 -92 33 -102 37 -288 4 -173 2 -204 -18 -290 -24 -105 -40
-138 -40 -82 0 19 -10 51 -22 70 -17 27 -21 47 -19 90 6 126 -49 279 -154 425
-84 118 -183 189 -365 260 -60 24 -90 30 -150 30 -91 0 -270 -25 -270 -37 0
-5 -20 3 -43 17 -60 34 -96 33 -133 -6 -16 -17 -74 -67 -128 -112 -157 -126
-198 -186 -227 -333 -10 -50 -27 -124 -39 -165 -11 -40 -20 -95 -20 -121 0
-33 -4 -48 -13 -48 -20 0 -64 -50 -81 -92 -34 -81 -25 -109 117 -365 47 -85
57 -111 57 -151 0 -61 -24 -155 -55 -209 -38 -69 8 -67 61 2 31 41 44 44 44
10 0 -40 25 -89 56 -114 16 -12 43 -34 61 -49 17 -15 42 -29 55 -32 20 -5 23
-13 26 -58 2 -41 -1 -58 -17 -79 -15 -18 -21 -40 -21 -74 0 -40 7 -58 46 -116
130 -190 211 -268 305 -293 46 -13 82 -60 136 -179 l36 -81 -40 -43 c-48 -52
-52 -70 -63 -276 -14 -269 11 -794 41 -840 8 -13 9 -10 4 11 -16 80 -35 391
-34 588 0 256 16 433 41 472 10 15 51 50 92 78 41 28 94 76 117 106 23 30 46
54 51 54 6 0 27 14 48 30 49 39 160 91 208 97 33 4 43 0 78 -30 21 -20 58 -48
81 -64 80 -54 194 -165 225 -219 16 -30 35 -54 40 -54 11 0 5 161 -8 268 -7
51 -23 56 201 -53 94 -46 211 -99 260 -120 50 -20 113 -52 142 -71 59 -39 69
-41 77 -16 4 11 17 29 30 41 l23 22 43 -57 c23 -31 58 -91 76 -133 53 -124 93
-373 95 -601 2 -166 16 -224 18 -70 2 255 -40 560 -95 679 -22 49 -76 130
-116 172 -7 8 -18 24 -24 34 -7 13 -67 41 -172 81 -229 88 -370 171 -500 295
-56 55 -106 99 -111 99 -8 0 -32 57 -45 105 -3 11 -3 0 0 -24 2 -24 11 -56 19
-72 30 -58 72 -321 75 -479 2 -76 1 -79 -14 -44 -20 45 -116 144 -204 210 -42
32 -94 74 -116 92 -35 31 -43 34 -82 28 -47 -6 -138 -49 -193 -90 -19 -14 -37
-23 -42 -21 -4 3 -35 -25 -68 -62 -55 -59 -119 -113 -136 -113 -3 0 -24 39
-46 87 -57 123 -72 141 -155 180 -41 19 -91 52 -113 73 -50 49 -201 240 -201
254 0 7 5 17 12 24 20 20 22 180 3 317 -9 69 -15 128 -13 130 11 12 288 -277
288 -300 0 -46 114 -246 151 -266 13 -7 4 14 -27 63 -48 74 -106 189 -100 195
2 2 21 -3 42 -11 66 -24 107 -27 164 -10 110 32 203 106 305 242 21 28 42 52
46 52 4 0 6 -15 3 -32 -3 -18 -8 -60 -13 -93 -5 -33 -23 -143 -40 -244 -18
-101 -30 -193 -28 -205 5 -30 13 -6 27 82 l12 72 29 -17 c16 -10 41 -27 56
-39 l27 -22 -24 -53 c-14 -29 -48 -83 -75 -119 -81 -106 -127 -172 -122 -177
5 -4 109 128 166 210 42 62 81 150 81 186 0 16 -17 53 -41 89 -37 55 -58 110
-59 153 0 14 6 15 38 8 20 -5 49 -11 65 -14 15 -3 63 -38 108 -80 44 -41 97
-83 117 -95 l37 -20 -40 32 c-22 18 -75 66 -118 105 -79 74 -92 81 -162 85
-46 3 -53 22 -15 41 28 14 61 61 117 169 l41 77 12 -45 c14 -48 41 -74 76 -74
l21 0 -21 43 c-17 35 -22 66 -26 182 -6 154 -13 126 73 300 42 86 60 141 99
298 55 222 50 475 -13 655 -48 135 -84 196 -157 260 -35 31 -98 92 -139 134
-80 82 -142 126 -226 159 -28 11 -83 36 -123 56 -62 30 -86 36 -156 39 -56 3
-95 0 -121 -10z m274 -43 c35 -17 103 -49 150 -72 76 -36 208 -135 196 -148
-2 -2 -26 6 -53 18 -152 65 -533 111 -698 84 -48 -8 -49 -7 -35 12 21 31 120
113 154 129 21 10 60 13 126 12 84 -3 103 -7 160 -35z m80 -554 c41 -16 84
-35 96 -41 23 -11 111 -122 152 -190 29 -49 66 -199 82 -329 6 -57 15 -107 18
-111 4 -4 23 1 44 12 96 52 139 -3 122 -157 -6 -57 -9 -64 -17 -43 -5 13 -26
47 -47 75 l-39 51 29 35 c16 18 29 37 29 42 0 20 -21 1 -64 -54 l-48 -62 9
-72 c6 -52 5 -82 -3 -106 -16 -43 -16 -49 -5 -49 21 0 32 68 23 137 -8 55 -7
72 5 91 l15 24 25 -34 c54 -72 55 -77 28 -165 -25 -81 -42 -105 -82 -117 -26
-8 -28 -1 -24 144 2 47 -2 96 -8 110 -7 19 -10 -9 -11 -115 -1 -77 -3 -151 -6
-165 -29 -172 -67 -264 -133 -323 -67 -60 -241 -178 -253 -171 -6 4 -8 3 -4
-4 8 -14 -52 -56 -83 -59 -14 -1 -36 -7 -50 -12 -43 -17 -92 -20 -140 -10 -25
5 -55 11 -67 13 -32 5 -46 16 -40 33 3 8 1 11 -4 8 -5 -3 -15 -1 -22 5 -7 6
-48 33 -90 61 -102 67 -225 190 -254 254 -36 79 -62 225 -65 369 -2 80 -8 138
-16 153 -17 33 -16 97 2 219 8 54 12 113 9 131 -13 68 36 159 147 274 67 70
108 95 184 114 39 10 75 21 80 25 23 16 115 29 190 27 44 -1 98 0 120 4 73 12
92 9 166 -22z m-951 -456 c0 -5 -10 -21 -21 -38 -20 -28 -21 -29 -15 -5 3 14
6 31 6 38 0 6 7 12 15 12 8 0 15 -3 15 -7z m-21 -251 c37 -23 46 -34 56 -77 7
-27 15 -109 17 -181 l4 -131 -26 13 c-14 7 -38 16 -54 19 -66 14 -141 142
-141 241 0 51 5 68 29 102 34 50 53 52 115 14z m1456 -241 c-17 -34 -28 -41
-19 -13 19 56 29 76 32 60 2 -9 -4 -30 -13 -47z m226 -1362 l24 -18 -37 11
c-31 9 -38 16 -38 37 0 23 1 23 13 7 7 -10 24 -26 38 -37z"/>
<path d="M2845 3875 c-22 -8 -41 -15 -42 -15 -2 0 -3 -11 -3 -25 0 -30 9 -31
52 -5 18 11 48 20 66 20 38 0 125 -41 165 -78 15 -14 27 -21 27 -15 0 17 -79
81 -132 109 -54 27 -77 29 -133 9z"/>
<path d="M2270 3850 c-19 -10 -57 -42 -85 -71 l-50 -52 48 32 c103 69 174 87
223 55 40 -27 52 -2 14 30 -38 32 -98 34 -150 6z"/>
<path d="M2835 3708 c-27 -15 -75 -60 -75 -71 0 -7 49 28 105 75 14 12 -6 9
-30 -4z"/>
<path d="M2345 3689 c-5 -7 5 -8 29 -4 30 6 39 3 61 -20 28 -31 34 -22 9 13
-11 16 -25 22 -54 22 -21 0 -42 -5 -45 -11z"/>
<path d="M2269 3630 c-68 -36 -162 -180 -119 -180 6 0 10 9 10 21 0 20 98 132
133 151 17 9 32 3 140 -50 5 -2 7 6 5 19 -6 48 -110 71 -169 39z"/>
<path d="M2812 3610 c-27 -36 -30 -60 -4 -37 10 9 35 23 56 32 31 13 44 14 74
4 48 -16 104 -61 139 -112 36 -52 44 -25 9 31 -41 66 -128 112 -209 112 -36 0
-47 -5 -65 -30z"/>
<path d="M2304 3575 c-23 -35 -29 -96 -11 -119 15 -20 71 -27 86 -10 5 5 11
29 15 53 7 46 5 47 -45 27 -21 -9 -35 39 -18 60 8 10 8 14 0 14 -6 0 -18 -11
-27 -25z"/>
<path d="M2852 3577 c-34 -41 -14 -131 32 -143 29 -7 49 3 42 21 -3 8 2 19 10
25 15 13 18 47 8 74 -5 14 -8 15 -18 2 -19 -24 -55 -30 -63 -10 -4 10 -2 19 5
22 14 4 16 22 3 22 -5 0 -13 -6 -19 -13z"/>
<path d="M2546 3338 c-7 -30 -4 -45 13 -74 28 -47 14 -69 -37 -59 -39 7 -37
-9 3 -19 53 -13 81 27 53 77 -7 12 -15 42 -18 67 l-6 45 -8 -37z"/>
<path d="M2666 3232 c-3 -6 10 -12 29 -14 22 -2 34 0 32 6 -5 14 -53 20 -61 8z"/>
<path d="M2957 3075 c-11 -10 -35 -15 -79 -15 -35 0 -124 -9 -198 -19 -74 -11
-173 -23 -220 -26 -47 -4 -93 -11 -102 -16 -10 -6 -19 -5 -23 1 -7 12 -45 14
-45 2 0 -14 23 -32 42 -32 10 0 35 -16 57 -35 56 -51 102 -67 190 -66 42 1 90
5 106 10 21 6 3 7 -56 4 -65 -4 -98 -2 -137 11 -51 17 -132 69 -132 85 0 5 42
11 93 15 50 4 161 16 245 27 159 20 212 23 212 13 0 -3 -9 -17 -20 -31 -20
-26 -19 -43 3 -43 20 0 106 83 109 105 4 25 -24 31 -45 10z"/>
<path d="M2605 3060 c7 -12 45 -14 45 -2 0 4 -11 9 -26 10 -14 1 -23 -2 -19
-8z"/>
<path d="M2758 2903 c7 -3 16 -2 19 1 4 3 -2 6 -13 5 -11 0 -14 -3 -6 -6z"/>
<path d="M2572 2793 c13 -16 51 -15 103 2 40 13 40 13 -37 12 -60 -2 -74 -5
-66 -14z"/>
<path d="M1825 3329 c-36 -69 -26 -84 13 -21 17 29 34 52 36 52 3 0 26 -21 52
-47 l46 -48 -11 -48 c-12 -51 -4 -80 24 -91 17 -6 21 9 4 20 -7 4 -9 27 -5 68
l7 61 -55 53 c-30 28 -62 52 -70 52 -9 0 -27 -23 -41 -51z"/>
<path d="M1972 2364 c-32 -22 -27 -38 5 -17 15 10 52 21 83 24 l55 6 -60 2
c-41 1 -68 -4 -83 -15z"/>
<path d="M1921 2263 c-37 -104 -36 -103 -146 -138 -55 -17 -140 -50 -190 -74
-49 -23 -180 -79 -290 -123 -236 -95 -299 -125 -381 -184 -67 -47 -156 -139
-180 -186 -26 -51 -10 -40 36 23 38 52 128 140 167 163 8 4 25 -13 48 -49 20
-31 43 -59 52 -62 9 -4 37 5 62 20 69 38 282 121 495 193 105 35 191 62 192
61 2 -2 -15 -61 -37 -132 -58 -189 -88 -385 -58 -385 12 0 162 116 218 168 57
53 220 158 313 202 101 47 174 65 237 56 32 -4 42 -3 35 4 -21 21 -119 24
-176 5 -132 -43 -336 -161 -396 -229 -15 -18 -62 -58 -104 -89 -42 -30 -79
-60 -83 -66 -3 -6 -14 -15 -24 -20 -16 -9 -17 -5 -9 57 19 143 57 274 189 661
33 95 58 175 56 178 -3 2 -14 -22 -26 -54z"/>
<path d="M1009 1582 c26 -50 70 -302 121 -702 12 -90 24 -167 27 -170 15 -14
-39 455 -78 685 -20 112 -52 205 -71 205 -5 0 -4 -8 1 -18z"/>
<path d="M910 1493 c0 -16 5 -35 11 -43 8 -11 9 -6 4 20 l-5 35 17 -24 c10
-14 34 -63 53 -110 41 -98 59 -133 60 -112 0 7 -16 55 -36 105 -52 130 -104
195 -104 129z"/>
<path d="M697 1445 c-3 -17 -33 -140 -66 -275 -33 -135 -63 -272 -66 -305 -4
-56 -4 -58 6 -20 17 63 106 442 124 527 9 43 15 83 13 90 -3 7 -7 -1 -11 -17z"/>
<path d="M2733 1358 c-19 -24 -23 -87 -7 -103 9 -8 19 -15 23 -15 32 0 67 104
40 121 -20 13 -45 11 -56 -3z m49 -38 c-1 -14 -11 -34 -22 -45 -20 -19 -20
-19 -20 12 0 44 10 65 29 61 10 -3 15 -12 13 -28z"/>
<path d="M4177 1280 c-8 -45 -16 -171 -27 -430 -11 -259 -23 -333 -71 -444
-25 -59 -32 -83 -20 -70 36 38 123 285 135 384 4 36 0 29 -19 -35 -14 -44 -23
-64 -20 -45 8 61 37 618 33 647 -4 27 -4 27 -11 -7z"/>
<path d="M3126 852 c-2 -4 -9 -43 -16 -88 -14 -95 -1 -143 47 -168 32 -16 159
-41 263 -51 36 -4 97 -14 135 -22 101 -20 261 -28 312 -14 34 9 47 19 62 49
20 39 41 134 41 184 l0 28 -84 0 c-74 0 -244 17 -481 49 -38 5 -108 15 -155
21 -47 6 -93 13 -102 15 -10 2 -20 0 -22 -3z m263 -47 c108 -14 223 -30 256
-36 33 -5 117 -13 186 -16 l126 -6 -13 -73 c-15 -88 -37 -132 -70 -144 -37
-14 -157 -12 -249 5 -44 8 -138 24 -210 35 -156 23 -243 45 -267 67 -15 13
-18 33 -18 111 l0 95 31 -7 c18 -3 120 -17 228 -31z"/>
<path d="M2057 824 c-1 -1 -65 -5 -142 -9 -189 -9 -404 -32 -495 -53 -69 -16
-75 -20 -78 -45 -5 -40 30 -146 56 -172 29 -29 61 -35 191 -35 270 1 584 71
621 139 13 26 13 138 -1 147 -8 4 -9 -12 -4 -57 6 -61 5 -65 -22 -90 -45 -42
-206 -86 -378 -104 -141 -15 -339 -15 -379 1 -22 8 -63 97 -72 154 -6 38 -5
40 19 40 14 0 58 7 97 15 66 14 311 34 608 51 133 7 181 26 57 22 -41 -1 -77
-3 -78 -4z"/>
<path d="M2710 715 c-13 -34 -12 -46 4 -67 13 -18 41 -24 49 -10 10 17 16 68
9 78 -4 6 -17 14 -29 18 -19 6 -25 2 -33 -19z m50 -24 c0 -29 -21 -57 -33 -44
-9 8 -9 58 0 66 16 17 33 5 33 -22z"/>
</g>
</svg>
